<svg width="811" height="199" viewBox="0 0 811 199" fill="none" xmlns="http://www.w3.org/2000/svg">
<g clip-path="url(#clip0_1_17)">
<g filter="url(#filter0_d_1_17)">
<path d="M25.5312 34.9091H62.392L87.7472 96.6989H89.0256L114.381 34.9091H151.241V144H122.264V80.9318H121.412L97.1222 143.148H79.6506L55.3608 80.5057H54.5085V144H25.5312V34.9091Z" fill="url(#paint0_linear_1_17)"/>
</g>
<g filter="url(#filter1_d_1_17)">
<path d="M197.338 69C197.054 65.4489 195.722 62.679 193.343 60.6903C190.999 58.7017 187.43 57.7074 182.636 57.7074C179.582 57.7074 177.079 58.0803 175.126 58.826C173.208 59.5362 171.788 60.5128 170.864 61.7557C169.941 62.9986 169.462 64.419 169.426 66.017C169.355 67.331 169.586 68.5206 170.119 69.5859C170.687 70.6158 171.575 71.5568 172.782 72.4091C173.989 73.2259 175.534 73.9716 177.416 74.6463C179.298 75.321 181.536 75.9247 184.128 76.4574L193.077 78.375C199.114 79.6534 204.281 81.3402 208.577 83.4354C212.874 85.5305 216.39 87.9986 219.124 90.8395C221.859 93.6449 223.865 96.8054 225.143 100.321C226.457 103.837 227.132 107.672 227.168 111.827C227.132 119 225.339 125.072 221.788 130.044C218.237 135.016 213.158 138.798 206.553 141.39C199.984 143.982 192.082 145.278 182.849 145.278C173.368 145.278 165.094 143.876 158.027 141.07C150.996 138.265 145.527 133.95 141.621 128.126C137.75 122.267 135.797 114.774 135.761 105.648H163.886C164.064 108.986 164.898 111.791 166.39 114.064C167.881 116.337 169.977 118.059 172.675 119.231C175.41 120.403 178.659 120.989 182.423 120.989C185.584 120.989 188.229 120.598 190.36 119.817C192.491 119.036 194.107 117.952 195.207 116.567C196.308 115.183 196.876 113.602 196.912 111.827C196.876 110.158 196.326 108.702 195.261 107.459C194.231 106.18 192.526 105.044 190.147 104.05C187.768 103.02 184.554 102.061 180.506 101.173L169.639 98.8295C159.98 96.7344 152.363 93.2365 146.788 88.3359C141.248 83.3999 138.496 76.6705 138.531 68.1477C138.496 61.223 140.342 55.1683 144.071 49.9837C147.835 44.7635 153.038 40.6974 159.678 37.7855C166.354 34.8736 174.007 33.4176 182.636 33.4176C191.443 33.4176 199.06 34.8913 205.488 37.8388C211.915 40.7862 216.869 44.9411 220.349 50.3033C223.865 55.63 225.641 61.8622 225.676 69H197.338Z" fill="url(#paint1_linear_1_17)"/>
</g>
<path d="M253 33.4545H268.727L279.545 59.8182H280.091L290.909 33.4545H306.636V80H294.273V53.0909H293.909L283.545 79.6364H276.091L265.727 52.9091H265.364V80H253V33.4545ZM325.261 33.4545V80H312.625V33.4545H325.261ZM331.25 80V33.4545H343.886V52.2727H344.523L358.523 33.4545H373.25L357.523 54.1818L373.614 80H358.523L348.068 62.5455L343.886 68V80H331.25ZM377 80V33.4545H410.545V43.6364H389.636V51.6364H408.818V61.8182H389.636V69.8182H410.455V80H377Z" fill="#464646"/>
<path d="M461.091 48C460.97 46.4848 460.402 45.303 459.386 44.4545C458.386 43.6061 456.864 43.1818 454.818 43.1818C453.515 43.1818 452.447 43.3409 451.614 43.6591C450.795 43.9621 450.189 44.3788 449.795 44.9091C449.402 45.4394 449.197 46.0455 449.182 46.7273C449.152 47.2879 449.25 47.7955 449.477 48.25C449.72 48.6894 450.098 49.0909 450.614 49.4545C451.129 49.803 451.788 50.1212 452.591 50.4091C453.394 50.697 454.348 50.9545 455.455 51.1818L459.273 52C461.848 52.5455 464.053 53.2652 465.886 54.1591C467.72 55.053 469.22 56.1061 470.386 57.3182C471.553 58.5152 472.409 59.8636 472.955 61.3636C473.515 62.8636 473.803 64.5 473.818 66.2727C473.803 69.3333 473.038 71.9242 471.523 74.0455C470.008 76.1667 467.841 77.7803 465.023 78.8864C462.22 79.9924 458.848 80.5455 454.909 80.5455C450.864 80.5455 447.333 79.947 444.318 78.75C441.318 77.553 438.985 75.7121 437.318 73.2273C435.667 70.7273 434.833 67.5303 434.818 63.6364H446.818C446.894 65.0606 447.25 66.2576 447.886 67.2273C448.523 68.197 449.417 68.9318 450.568 69.4318C451.735 69.9318 453.121 70.1818 454.727 70.1818C456.076 70.1818 457.205 70.0152 458.114 69.6818C459.023 69.3485 459.712 68.8864 460.182 68.2955C460.652 67.7045 460.894 67.0303 460.909 66.2727C460.894 65.5606 460.659 64.9394 460.205 64.4091C459.765 63.8636 459.038 63.3788 458.023 62.9545C457.008 62.5152 455.636 62.1061 453.909 61.7273L449.273 60.7273C445.152 59.8333 441.902 58.3409 439.523 56.25C437.159 54.1439 435.985 51.2727 436 47.6364C435.985 44.6818 436.773 42.0985 438.364 39.8864C439.97 37.6591 442.189 35.9242 445.023 34.6818C447.871 33.4394 451.136 32.8182 454.818 32.8182C458.576 32.8182 461.826 33.447 464.568 34.7045C467.311 35.9621 469.424 37.7348 470.909 40.0227C472.409 42.2955 473.167 44.9545 473.182 48H461.091ZM522.08 50.9091H509.261C509.17 49.8485 508.928 48.8864 508.534 48.0227C508.155 47.1591 507.625 46.4167 506.943 45.7955C506.277 45.1591 505.466 44.6742 504.511 44.3409C503.557 43.9924 502.473 43.8182 501.261 43.8182C499.14 43.8182 497.345 44.3333 495.875 45.3636C494.42 46.3939 493.314 47.8712 492.557 49.7955C491.814 51.7197 491.443 54.0303 491.443 56.7273C491.443 59.5758 491.822 61.9621 492.58 63.8864C493.352 65.7955 494.466 67.2348 495.92 68.2045C497.375 69.1591 499.125 69.6364 501.17 69.6364C502.337 69.6364 503.383 69.4924 504.307 69.2045C505.231 68.9015 506.034 68.4697 506.716 67.9091C507.398 67.3485 507.951 66.6742 508.375 65.8864C508.814 65.0833 509.11 64.1818 509.261 63.1818L522.08 63.2727C521.928 65.2424 521.375 67.25 520.42 69.2955C519.466 71.3258 518.11 73.2045 516.352 74.9318C514.61 76.6439 512.451 78.0227 509.875 79.0682C507.299 80.1136 504.307 80.6364 500.898 80.6364C496.625 80.6364 492.792 79.7197 489.398 77.8864C486.019 76.053 483.345 73.3561 481.375 69.7955C479.42 66.2348 478.443 61.8788 478.443 56.7273C478.443 51.5455 479.443 47.1818 481.443 43.6364C483.443 40.0758 486.14 37.3864 489.534 35.5682C492.928 33.7348 496.716 32.8182 500.898 32.8182C503.837 32.8182 506.542 33.2197 509.011 34.0227C511.481 34.8258 513.648 36 515.511 37.5455C517.375 39.0758 518.875 40.9621 520.011 43.2045C521.148 45.447 521.837 48.0152 522.08 50.9091ZM527.812 80V33.4545H540.449V51.6364H557.176V33.4545H569.812V80H557.176V61.8182H540.449V80H527.812ZM587.903 80H574.267L589.631 33.4545H606.903L622.267 80H608.631L598.449 46.2727H598.085L587.903 80ZM585.358 61.6364H610.994V71.0909H585.358V61.6364ZM654.295 33.4545H666.932V63.2727C666.932 66.8182 666.083 69.8864 664.386 72.4773C662.705 75.053 660.356 77.0455 657.341 78.4545C654.326 79.8485 650.826 80.5455 646.841 80.5455C642.826 80.5455 639.311 79.8485 636.295 78.4545C633.28 77.0455 630.932 75.053 629.25 72.4773C627.583 69.8864 626.75 66.8182 626.75 63.2727V33.4545H639.386V62.1818C639.386 63.6212 639.705 64.9091 640.341 66.0455C640.977 67.1667 641.856 68.0455 642.977 68.6818C644.114 69.3182 645.402 69.6364 646.841 69.6364C648.295 69.6364 649.583 69.3182 650.705 68.6818C651.826 68.0455 652.705 67.1667 653.341 66.0455C653.977 64.9091 654.295 63.6212 654.295 62.1818V33.4545ZM672.938 80V33.4545H693.119C696.665 33.4545 699.642 33.9318 702.051 34.8864C704.475 35.8409 706.301 37.1894 707.528 38.9318C708.771 40.6742 709.392 42.7273 709.392 45.0909C709.392 46.803 709.013 48.3636 708.256 49.7727C707.513 51.1818 706.468 52.3636 705.119 53.3182C703.771 54.2576 702.195 54.9091 700.392 55.2727V55.7273C702.392 55.803 704.21 56.3106 705.847 57.25C707.483 58.1742 708.786 59.4545 709.756 61.0909C710.725 62.7121 711.21 64.6212 711.21 66.8182C711.21 69.3636 710.544 71.6288 709.21 73.6136C707.892 75.5985 706.013 77.1591 703.574 78.2955C701.134 79.4318 698.225 80 694.847 80H672.938ZM685.574 69.9091H691.483C693.604 69.9091 695.195 69.5152 696.256 68.7273C697.316 67.9242 697.847 66.7424 697.847 65.1818C697.847 64.0909 697.597 63.1667 697.097 62.4091C696.597 61.6515 695.884 61.0758 694.96 60.6818C694.051 60.2879 692.953 60.0909 691.665 60.0909H685.574V69.9091ZM685.574 52.2727H690.756C691.862 52.2727 692.839 52.0985 693.688 51.75C694.536 51.4015 695.195 50.9015 695.665 50.25C696.15 49.5833 696.392 48.7727 696.392 47.8182C696.392 46.3788 695.877 45.2803 694.847 44.5227C693.816 43.75 692.513 43.3636 690.938 43.3636H685.574V52.2727ZM715.688 80V33.4545H749.233V43.6364H728.324V51.6364H747.506V61.8182H728.324V69.8182H749.142V80H715.688ZM755.5 80V33.4545H775.591C779.045 33.4545 782.068 34.0833 784.659 35.3409C787.25 36.5985 789.265 38.4091 790.705 40.7727C792.144 43.1364 792.864 45.9697 792.864 49.2727C792.864 52.6061 792.121 55.4167 790.636 57.7045C789.167 59.9924 787.098 61.7197 784.432 62.8864C781.78 64.053 778.682 64.6364 775.136 64.6364H763.136V54.8182H772.591C774.076 54.8182 775.341 54.6364 776.386 54.2727C777.447 53.8939 778.258 53.2955 778.818 52.4773C779.394 51.6591 779.682 50.5909 779.682 49.2727C779.682 47.9394 779.394 46.8561 778.818 46.0227C778.258 45.1742 777.447 44.553 776.386 44.1591C775.341 43.75 774.076 43.5455 772.591 43.5455H768.136V80H755.5ZM782.773 58.6364L794.409 80H780.682L769.318 58.6364H782.773Z" fill="#464646"/>
<path d="M475.807 130L467.852 100.909H471.432L477.511 124.602H477.795L483.989 100.909H487.966L494.159 124.602H494.443L500.523 100.909H504.102L496.148 130H492.511L486.091 106.818H485.864L479.443 130H475.807ZM508.491 130V100.909H526.048V104.034H512.014V113.864H525.139V116.989H512.014V126.875H526.276V130H508.491ZM532.398 130V100.909H542.568C544.595 100.909 546.266 101.259 547.582 101.96C548.899 102.652 549.879 103.584 550.523 104.759C551.167 105.923 551.489 107.216 551.489 108.636C551.489 109.886 551.266 110.919 550.821 111.733C550.385 112.547 549.808 113.191 549.088 113.665C548.378 114.138 547.606 114.489 546.773 114.716V115C547.663 115.057 548.558 115.369 549.457 115.938C550.357 116.506 551.11 117.32 551.716 118.381C552.322 119.441 552.625 120.739 552.625 122.273C552.625 123.731 552.294 125.043 551.631 126.207C550.968 127.372 549.921 128.295 548.491 128.977C547.062 129.659 545.201 130 542.909 130H532.398ZM535.92 126.875H542.909C545.21 126.875 546.844 126.43 547.81 125.54C548.785 124.64 549.273 123.551 549.273 122.273C549.273 121.288 549.022 120.379 548.52 119.545C548.018 118.703 547.303 118.03 546.375 117.528C545.447 117.017 544.348 116.761 543.08 116.761H535.92V126.875ZM535.92 113.693H542.455C543.515 113.693 544.472 113.485 545.324 113.068C546.186 112.652 546.867 112.064 547.369 111.307C547.881 110.549 548.136 109.659 548.136 108.636C548.136 107.358 547.691 106.274 546.801 105.384C545.911 104.484 544.5 104.034 542.568 104.034H535.92V113.693ZM578.641 130H569.663V100.909H579.038C581.86 100.909 584.275 101.491 586.283 102.656C588.29 103.812 589.829 105.473 590.899 107.642C591.969 109.801 592.504 112.386 592.504 115.398C592.504 118.428 591.964 121.037 590.885 123.224C589.805 125.402 588.233 127.079 586.169 128.253C584.105 129.418 581.595 130 578.641 130ZM573.186 126.875H578.413C580.819 126.875 582.812 126.411 584.393 125.483C585.975 124.555 587.154 123.234 587.93 121.52C588.707 119.806 589.095 117.765 589.095 115.398C589.095 113.049 588.712 111.027 587.945 109.332C587.178 107.628 586.032 106.321 584.507 105.412C582.982 104.493 581.084 104.034 578.811 104.034H573.186V126.875ZM598.413 130V100.909H615.97V104.034H601.936V113.864H615.061V116.989H601.936V126.875H616.197V130H598.413ZM623.513 100.909L632.149 125.398H632.49L641.126 100.909H644.82L634.138 130H630.501L619.82 100.909H623.513ZM649.351 130V100.909H666.908V104.034H652.874V113.864H665.999V116.989H652.874V126.875H667.135V130H649.351ZM673.257 130V100.909H676.78V126.875H690.303V130H673.257ZM719.17 115.455C719.17 118.523 718.616 121.174 717.508 123.409C716.4 125.644 714.88 127.367 712.948 128.58C711.016 129.792 708.81 130.398 706.329 130.398C703.848 130.398 701.641 129.792 699.71 128.58C697.778 127.367 696.258 125.644 695.15 123.409C694.042 121.174 693.488 118.523 693.488 115.455C693.488 112.386 694.042 109.735 695.15 107.5C696.258 105.265 697.778 103.542 699.71 102.33C701.641 101.117 703.848 100.511 706.329 100.511C708.81 100.511 711.016 101.117 712.948 102.33C714.88 103.542 716.4 105.265 717.508 107.5C718.616 109.735 719.17 112.386 719.17 115.455ZM715.761 115.455C715.761 112.936 715.339 110.81 714.496 109.077C713.663 107.344 712.531 106.032 711.102 105.142C709.681 104.252 708.09 103.807 706.329 103.807C704.567 103.807 702.972 104.252 701.542 105.142C700.121 106.032 698.99 107.344 698.147 109.077C697.314 110.81 696.897 112.936 696.897 115.455C696.897 117.973 697.314 120.099 698.147 121.832C698.99 123.565 700.121 124.877 701.542 125.767C702.972 126.657 704.567 127.102 706.329 127.102C708.09 127.102 709.681 126.657 711.102 125.767C712.531 124.877 713.663 123.565 714.496 121.832C715.339 120.099 715.761 117.973 715.761 115.455ZM725.093 130V100.909H734.923C737.205 100.909 739.07 101.321 740.519 102.145C741.978 102.959 743.057 104.062 743.758 105.455C744.459 106.847 744.809 108.4 744.809 110.114C744.809 111.828 744.459 113.385 743.758 114.787C743.067 116.188 741.996 117.306 740.548 118.139C739.099 118.963 737.243 119.375 734.979 119.375H727.934V116.25H734.866C736.428 116.25 737.683 115.98 738.63 115.44C739.577 114.901 740.263 114.171 740.69 113.253C741.125 112.325 741.343 111.278 741.343 110.114C741.343 108.949 741.125 107.907 740.69 106.989C740.263 106.07 739.572 105.35 738.616 104.83C737.659 104.299 736.39 104.034 734.809 104.034H728.616V130H725.093ZM750.484 130V100.909H768.04V104.034H754.006V113.864H767.131V116.989H754.006V126.875H768.268V130H750.484ZM774.39 130V100.909H784.219C786.492 100.909 788.358 101.297 789.816 102.074C791.274 102.841 792.354 103.897 793.055 105.241C793.755 106.586 794.106 108.116 794.106 109.83C794.106 111.544 793.755 113.063 793.055 114.389C792.354 115.715 791.279 116.757 789.83 117.514C788.381 118.262 786.53 118.636 784.276 118.636H776.322V115.455H784.163C785.716 115.455 786.966 115.227 787.913 114.773C788.869 114.318 789.56 113.674 789.987 112.841C790.422 111.998 790.64 110.994 790.64 109.83C790.64 108.665 790.422 107.647 789.987 106.776C789.551 105.904 788.855 105.232 787.898 104.759C786.942 104.276 785.678 104.034 784.106 104.034H777.913V130H774.39ZM788.083 116.932L795.242 130H791.151L784.106 116.932H788.083Z" fill="#464646"/>
<rect x="467" y="141" width="329" height="4" fill="#464646"/>
<path d="M535.807 172L531.818 158.909H533.932L536.761 168.932H536.898L539.693 158.909H541.841L544.602 168.898H544.739L547.568 158.909H549.682L545.693 172H543.716L540.852 161.943H540.648L537.784 172H535.807ZM555.307 172L551.318 158.909H553.432L556.261 168.932H556.398L559.193 158.909H561.341L564.102 168.898H564.239L567.068 158.909H569.182L565.193 172H563.216L560.352 161.943H560.148L557.284 172H555.307ZM574.807 172L570.818 158.909H572.932L575.761 168.932H575.898L578.693 158.909H580.841L583.602 168.898H583.739L586.568 158.909H588.682L584.693 172H582.716L579.852 161.943H579.648L576.784 172H574.807ZM591.026 172.136C590.605 172.136 590.244 171.986 589.943 171.685C589.642 171.384 589.491 171.023 589.491 170.602C589.491 170.182 589.642 169.821 589.943 169.52C590.244 169.219 590.605 169.068 591.026 169.068C591.446 169.068 591.807 169.219 592.108 169.52C592.409 169.821 592.56 170.182 592.56 170.602C592.56 170.881 592.489 171.136 592.347 171.369C592.21 171.602 592.026 171.79 591.793 171.932C591.565 172.068 591.31 172.136 591.026 172.136ZM596.169 172V158.909H598.112V160.955H598.283C598.555 160.256 598.996 159.713 599.604 159.327C600.212 158.935 600.942 158.739 601.794 158.739C602.658 158.739 603.376 158.935 603.95 159.327C604.53 159.713 604.982 160.256 605.305 160.955H605.442C605.777 160.278 606.28 159.741 606.95 159.344C607.621 158.94 608.425 158.739 609.362 158.739C610.533 158.739 611.49 159.105 612.234 159.838C612.979 160.565 613.351 161.699 613.351 163.239V172H611.339V163.239C611.339 162.273 611.075 161.582 610.547 161.168C610.018 160.753 609.396 160.545 608.68 160.545C607.76 160.545 607.047 160.824 606.541 161.381C606.036 161.932 605.783 162.631 605.783 163.477V172H603.737V163.034C603.737 162.29 603.496 161.69 603.013 161.236C602.53 160.776 601.908 160.545 601.146 160.545C600.624 160.545 600.135 160.685 599.68 160.963C599.232 161.241 598.868 161.628 598.589 162.122C598.317 162.611 598.18 163.176 598.18 163.818V172H596.169ZM617.028 172V158.909H619.04V172H617.028ZM618.051 156.727C617.659 156.727 617.321 156.594 617.037 156.327C616.759 156.06 616.619 155.739 616.619 155.364C616.619 154.989 616.759 154.668 617.037 154.401C617.321 154.134 617.659 154 618.051 154C618.443 154 618.778 154.134 619.057 154.401C619.341 154.668 619.483 154.989 619.483 155.364C619.483 155.739 619.341 156.06 619.057 156.327C618.778 156.594 618.443 156.727 618.051 156.727ZM624.599 167.227L624.565 164.739H624.974L630.701 158.909H633.19L627.087 165.08H626.917L624.599 167.227ZM622.724 172V154.545H624.735V172H622.724ZM631.042 172L625.928 165.523L627.36 164.125L633.599 172H631.042ZM640.728 172.273C639.467 172.273 638.379 171.994 637.464 171.438C636.555 170.875 635.853 170.091 635.359 169.085C634.87 168.074 634.626 166.898 634.626 165.557C634.626 164.216 634.87 163.034 635.359 162.011C635.853 160.983 636.54 160.182 637.421 159.608C638.308 159.028 639.342 158.739 640.523 158.739C641.205 158.739 641.879 158.852 642.543 159.08C643.208 159.307 643.813 159.676 644.359 160.188C644.904 160.693 645.339 161.364 645.663 162.199C645.987 163.034 646.148 164.062 646.148 165.284V166.136H636.058V164.398H644.103C644.103 163.659 643.955 163 643.66 162.42C643.37 161.841 642.955 161.384 642.415 161.048C641.881 160.713 641.251 160.545 640.523 160.545C639.722 160.545 639.029 160.744 638.444 161.142C637.864 161.534 637.418 162.045 637.106 162.676C636.793 163.307 636.637 163.983 636.637 164.705V165.864C636.637 166.852 636.808 167.69 637.148 168.378C637.495 169.06 637.975 169.58 638.589 169.938C639.202 170.29 639.915 170.466 640.728 170.466C641.256 170.466 641.734 170.392 642.16 170.244C642.592 170.091 642.964 169.864 643.276 169.562C643.589 169.256 643.83 168.875 644.001 168.42L645.944 168.966C645.739 169.625 645.396 170.205 644.913 170.705C644.43 171.199 643.833 171.585 643.123 171.864C642.413 172.136 641.614 172.273 640.728 172.273ZM658.481 161.841L656.674 162.352C656.56 162.051 656.393 161.759 656.171 161.474C655.955 161.185 655.66 160.946 655.285 160.759C654.91 160.571 654.43 160.477 653.844 160.477C653.043 160.477 652.376 160.662 651.842 161.031C651.313 161.395 651.049 161.858 651.049 162.42C651.049 162.92 651.231 163.315 651.594 163.605C651.958 163.895 652.526 164.136 653.299 164.33L655.242 164.807C656.413 165.091 657.285 165.526 657.859 166.111C658.433 166.69 658.719 167.437 658.719 168.352C658.719 169.102 658.504 169.773 658.072 170.364C657.646 170.955 657.049 171.42 656.282 171.761C655.515 172.102 654.623 172.273 653.606 172.273C652.271 172.273 651.165 171.983 650.29 171.403C649.415 170.824 648.862 169.977 648.629 168.864L650.538 168.386C650.719 169.091 651.063 169.619 651.569 169.972C652.08 170.324 652.748 170.5 653.572 170.5C654.509 170.5 655.254 170.301 655.805 169.903C656.362 169.5 656.64 169.017 656.64 168.455C656.64 168 656.481 167.619 656.163 167.312C655.844 167 655.356 166.767 654.697 166.614L652.515 166.102C651.316 165.818 650.435 165.378 649.873 164.781C649.316 164.179 649.038 163.426 649.038 162.523C649.038 161.784 649.245 161.131 649.66 160.562C650.08 159.994 650.651 159.548 651.373 159.224C652.1 158.901 652.924 158.739 653.844 158.739C655.14 158.739 656.157 159.023 656.896 159.591C657.64 160.159 658.168 160.909 658.481 161.841ZM667.065 172.273C665.838 172.273 664.781 171.983 663.895 171.403C663.009 170.824 662.327 170.026 661.849 169.009C661.372 167.991 661.134 166.83 661.134 165.523C661.134 164.193 661.378 163.02 661.866 162.003C662.361 160.98 663.048 160.182 663.929 159.608C664.815 159.028 665.849 158.739 667.031 158.739C667.952 158.739 668.781 158.909 669.52 159.25C670.259 159.591 670.864 160.068 671.335 160.682C671.807 161.295 672.099 162.011 672.213 162.83H670.202C670.048 162.233 669.707 161.705 669.179 161.244C668.656 160.778 667.952 160.545 667.065 160.545C666.281 160.545 665.594 160.75 665.003 161.159C664.418 161.562 663.96 162.134 663.631 162.872C663.307 163.605 663.145 164.466 663.145 165.455C663.145 166.466 663.304 167.347 663.622 168.097C663.946 168.847 664.401 169.429 664.986 169.844C665.577 170.259 666.27 170.466 667.065 170.466C667.588 170.466 668.062 170.375 668.489 170.193C668.915 170.011 669.276 169.75 669.571 169.409C669.866 169.068 670.077 168.659 670.202 168.182H672.213C672.099 168.955 671.818 169.651 671.369 170.27C670.926 170.884 670.338 171.372 669.605 171.736C668.878 172.094 668.031 172.273 667.065 172.273ZM677.165 164.125V172H675.153V154.545H677.165V160.955H677.335C677.642 160.278 678.102 159.741 678.716 159.344C679.335 158.94 680.159 158.739 681.188 158.739C682.08 158.739 682.861 158.918 683.531 159.276C684.202 159.628 684.722 160.17 685.091 160.903C685.466 161.631 685.653 162.557 685.653 163.682V172H683.642V163.818C683.642 162.778 683.372 161.974 682.832 161.406C682.298 160.832 681.557 160.545 680.608 160.545C679.949 160.545 679.358 160.685 678.835 160.963C678.318 161.241 677.909 161.648 677.608 162.182C677.313 162.716 677.165 163.364 677.165 164.125ZM693.185 172.307C692.356 172.307 691.603 172.151 690.927 171.838C690.251 171.52 689.714 171.062 689.316 170.466C688.918 169.864 688.719 169.136 688.719 168.284C688.719 167.534 688.867 166.926 689.163 166.46C689.458 165.989 689.853 165.619 690.347 165.352C690.842 165.085 691.387 164.886 691.984 164.756C692.586 164.619 693.191 164.511 693.799 164.432C694.594 164.33 695.239 164.253 695.734 164.202C696.234 164.145 696.597 164.051 696.825 163.92C697.058 163.79 697.174 163.562 697.174 163.239V163.17C697.174 162.33 696.944 161.676 696.484 161.21C696.029 160.744 695.339 160.511 694.413 160.511C693.452 160.511 692.7 160.722 692.154 161.142C691.609 161.562 691.225 162.011 691.004 162.489L689.094 161.807C689.435 161.011 689.89 160.392 690.458 159.949C691.032 159.5 691.657 159.187 692.333 159.011C693.015 158.83 693.685 158.739 694.344 158.739C694.765 158.739 695.248 158.79 695.793 158.892C696.344 158.989 696.876 159.19 697.387 159.497C697.904 159.804 698.333 160.267 698.674 160.886C699.015 161.506 699.185 162.335 699.185 163.375V172H697.174V170.227H697.072C696.935 170.511 696.708 170.815 696.39 171.139C696.072 171.463 695.648 171.739 695.12 171.966C694.592 172.193 693.947 172.307 693.185 172.307ZM693.492 170.5C694.288 170.5 694.958 170.344 695.504 170.031C696.055 169.719 696.469 169.315 696.748 168.821C697.032 168.327 697.174 167.807 697.174 167.261V165.42C697.089 165.523 696.901 165.616 696.612 165.702C696.327 165.781 695.998 165.852 695.623 165.915C695.254 165.972 694.893 166.023 694.54 166.068C694.194 166.108 693.913 166.142 693.697 166.17C693.174 166.239 692.685 166.349 692.231 166.503C691.782 166.651 691.418 166.875 691.14 167.176C690.867 167.472 690.731 167.875 690.731 168.386C690.731 169.085 690.989 169.614 691.506 169.972C692.029 170.324 692.691 170.5 693.492 170.5ZM711.107 166.648V158.909H713.118V172H711.107V169.784H710.97C710.663 170.449 710.186 171.014 709.538 171.48C708.891 171.94 708.072 172.17 707.084 172.17C706.266 172.17 705.538 171.991 704.902 171.634C704.266 171.27 703.766 170.724 703.402 169.997C703.038 169.264 702.857 168.341 702.857 167.227V158.909H704.868V167.091C704.868 168.045 705.135 168.807 705.669 169.375C706.209 169.943 706.896 170.227 707.732 170.227C708.232 170.227 708.74 170.099 709.257 169.844C709.78 169.588 710.217 169.196 710.57 168.668C710.928 168.139 711.107 167.466 711.107 166.648ZM717.075 172V154.545H719.086V160.989H719.256C719.404 160.761 719.609 160.472 719.87 160.119C720.137 159.761 720.518 159.443 721.012 159.165C721.512 158.881 722.188 158.739 723.04 158.739C724.143 158.739 725.114 159.014 725.955 159.565C726.796 160.116 727.452 160.898 727.924 161.909C728.396 162.92 728.631 164.114 728.631 165.489C728.631 166.875 728.396 168.077 727.924 169.094C727.452 170.105 726.799 170.889 725.964 171.446C725.129 171.997 724.165 172.273 723.075 172.273C722.234 172.273 721.56 172.134 721.055 171.855C720.549 171.571 720.16 171.25 719.887 170.892C719.614 170.528 719.404 170.227 719.256 169.989H719.018V172H717.075ZM719.052 165.455C719.052 166.443 719.197 167.315 719.487 168.071C719.776 168.821 720.2 169.409 720.756 169.835C721.313 170.256 721.995 170.466 722.802 170.466C723.643 170.466 724.344 170.244 724.907 169.801C725.475 169.352 725.901 168.75 726.185 167.994C726.475 167.233 726.62 166.386 726.62 165.455C726.62 164.534 726.478 163.705 726.194 162.966C725.915 162.222 725.492 161.634 724.924 161.202C724.362 160.764 723.654 160.545 722.802 160.545C721.984 160.545 721.296 160.753 720.739 161.168C720.183 161.577 719.762 162.151 719.478 162.889C719.194 163.622 719.052 164.477 719.052 165.455ZM737.197 172.273C735.935 172.273 734.847 171.994 733.933 171.438C733.023 170.875 732.322 170.091 731.827 169.085C731.339 168.074 731.094 166.898 731.094 165.557C731.094 164.216 731.339 163.034 731.827 162.011C732.322 160.983 733.009 160.182 733.89 159.608C734.776 159.028 735.81 158.739 736.992 158.739C737.674 158.739 738.347 158.852 739.012 159.08C739.677 159.307 740.282 159.676 740.827 160.188C741.373 160.693 741.808 161.364 742.131 162.199C742.455 163.034 742.617 164.062 742.617 165.284V166.136H732.526V164.398H740.572C740.572 163.659 740.424 163 740.129 162.42C739.839 161.841 739.424 161.384 738.884 161.048C738.35 160.713 737.719 160.545 736.992 160.545C736.191 160.545 735.498 160.744 734.913 161.142C734.333 161.534 733.887 162.045 733.575 162.676C733.262 163.307 733.106 163.983 733.106 164.705V165.864C733.106 166.852 733.276 167.69 733.617 168.378C733.964 169.06 734.444 169.58 735.058 169.938C735.671 170.29 736.384 170.466 737.197 170.466C737.725 170.466 738.202 170.392 738.629 170.244C739.06 170.091 739.433 169.864 739.745 169.562C740.058 169.256 740.299 168.875 740.469 168.42L742.413 168.966C742.208 169.625 741.864 170.205 741.381 170.705C740.898 171.199 740.302 171.585 739.592 171.864C738.881 172.136 738.083 172.273 737.197 172.273ZM745.677 172V158.909H747.62V160.886H747.756C747.995 160.239 748.427 159.713 749.052 159.31C749.677 158.906 750.381 158.705 751.165 158.705C751.313 158.705 751.498 158.707 751.719 158.713C751.941 158.719 752.109 158.727 752.222 158.739V160.784C752.154 160.767 751.998 160.741 751.754 160.707C751.515 160.668 751.262 160.648 750.995 160.648C750.359 160.648 749.79 160.781 749.29 161.048C748.796 161.31 748.404 161.673 748.114 162.139C747.83 162.599 747.688 163.125 747.688 163.716V172H745.677ZM754.572 172.136C754.152 172.136 753.791 171.986 753.49 171.685C753.189 171.384 753.038 171.023 753.038 170.602C753.038 170.182 753.189 169.821 753.49 169.52C753.791 169.219 754.152 169.068 754.572 169.068C754.993 169.068 755.354 169.219 755.655 169.52C755.956 169.821 756.107 170.182 756.107 170.602C756.107 170.881 756.036 171.136 755.893 171.369C755.757 171.602 755.572 171.79 755.339 171.932C755.112 172.068 754.857 172.136 754.572 172.136ZM764.659 172.273C763.568 172.273 762.605 171.997 761.77 171.446C760.935 170.889 760.281 170.105 759.81 169.094C759.338 168.077 759.102 166.875 759.102 165.489C759.102 164.114 759.338 162.92 759.81 161.909C760.281 160.898 760.938 160.116 761.778 159.565C762.619 159.014 763.591 158.739 764.693 158.739C765.545 158.739 766.219 158.881 766.713 159.165C767.213 159.443 767.594 159.761 767.855 160.119C768.122 160.472 768.33 160.761 768.477 160.989H768.648V154.545H770.659V172H768.716V169.989H768.477C768.33 170.227 768.119 170.528 767.847 170.892C767.574 171.25 767.185 171.571 766.679 171.855C766.173 172.134 765.5 172.273 764.659 172.273ZM764.932 170.466C765.739 170.466 766.42 170.256 766.977 169.835C767.534 169.409 767.957 168.821 768.247 168.071C768.537 167.315 768.682 166.443 768.682 165.455C768.682 164.477 768.54 163.622 768.256 162.889C767.972 162.151 767.551 161.577 766.994 161.168C766.438 160.753 765.75 160.545 764.932 160.545C764.08 160.545 763.369 160.764 762.801 161.202C762.239 161.634 761.815 162.222 761.531 162.966C761.253 163.705 761.114 164.534 761.114 165.455C761.114 166.386 761.256 167.233 761.54 167.994C761.83 168.75 762.256 169.352 762.818 169.801C763.386 170.244 764.091 170.466 764.932 170.466ZM780.111 172.273C778.849 172.273 777.761 171.994 776.847 171.438C775.938 170.875 775.236 170.091 774.741 169.085C774.253 168.074 774.009 166.898 774.009 165.557C774.009 164.216 774.253 163.034 774.741 162.011C775.236 160.983 775.923 160.182 776.804 159.608C777.69 159.028 778.724 158.739 779.906 158.739C780.588 158.739 781.261 158.852 781.926 159.08C782.591 159.307 783.196 159.676 783.741 160.188C784.287 160.693 784.722 161.364 785.045 162.199C785.369 163.034 785.531 164.062 785.531 165.284V166.136H775.44V164.398H783.486C783.486 163.659 783.338 163 783.043 162.42C782.753 161.841 782.338 161.384 781.798 161.048C781.264 160.713 780.634 160.545 779.906 160.545C779.105 160.545 778.412 160.744 777.827 161.142C777.247 161.534 776.801 162.045 776.489 162.676C776.176 163.307 776.02 163.983 776.02 164.705V165.864C776.02 166.852 776.19 167.69 776.531 168.378C776.878 169.06 777.358 169.58 777.972 169.938C778.585 170.29 779.298 170.466 780.111 170.466C780.639 170.466 781.116 170.392 781.543 170.244C781.974 170.091 782.347 169.864 782.659 169.562C782.972 169.256 783.213 168.875 783.384 168.42L785.327 168.966C785.122 169.625 784.778 170.205 784.295 170.705C783.813 171.199 783.216 171.585 782.506 171.864C781.795 172.136 780.997 172.273 780.111 172.273Z" fill="#464646"/>
</g>
<defs>
<filter id="filter0_d_1_17" x="7.53125" y="26.9091" width="161.71" height="145.091" filterUnits="userSpaceOnUse" color-interpolation-filters="sRGB">
<feFlood flood-opacity="0" result="BackgroundImageFix"/>
<feColorMatrix in="SourceAlpha" type="matrix" values="0 0 0 0 0 0 0 0 0 0 0 0 0 0 0 0 0 0 127 0" result="hardAlpha"/>
<feMorphology radius="6" operator="erode" in="SourceAlpha" result="effect1_dropShadow_1_17"/>
<feOffset dy="10"/>
<feGaussianBlur stdDeviation="12"/>
<feColorMatrix type="matrix" values="0 0 0 0 0.101961 0 0 0 0 0.701961 0 0 0 0 0.580392 0 0 0 0.2 0"/>
<feBlend mode="normal" in2="BackgroundImageFix" result="effect1_dropShadow_1_17"/>
<feBlend mode="normal" in="SourceGraphic" in2="effect1_dropShadow_1_17" result="shape"/>
</filter>
<filter id="filter1_d_1_17" x="117.761" y="25.4176" width="127.406" height="147.861" filterUnits="userSpaceOnUse" color-interpolation-filters="sRGB">
<feFlood flood-opacity="0" result="BackgroundImageFix"/>
<feColorMatrix in="SourceAlpha" type="matrix" values="0 0 0 0 0 0 0 0 0 0 0 0 0 0 0 0 0 0 127 0" result="hardAlpha"/>
<feMorphology radius="6" operator="erode" in="SourceAlpha" result="effect1_dropShadow_1_17"/>
<feOffset dy="10"/>
<feGaussianBlur stdDeviation="12"/>
<feColorMatrix type="matrix" values="0 0 0 0 0.101961 0 0 0 0 0.701961 0 0 0 0 0.580392 0 0 0 0.2 0"/>
<feBlend mode="normal" in2="BackgroundImageFix" result="effect1_dropShadow_1_17"/>
<feBlend mode="normal" in="SourceGraphic" in2="effect1_dropShadow_1_17" result="shape"/>
</filter>
<linearGradient id="paint0_linear_1_17" x1="18.5" y1="14" x2="158.5" y2="14" gradientUnits="userSpaceOnUse">
<stop stop-color="#1AB394"/>
<stop offset="1" stop-color="#0F766E"/>
</linearGradient>
<linearGradient id="paint1_linear_1_17" x1="131.5" y1="14" x2="231.5" y2="14" gradientUnits="userSpaceOnUse">
<stop stop-color="#1AB394"/>
<stop offset="1" stop-color="#0F766E"/>
</linearGradient>
<clipPath id="clip0_1_17">
<rect width="811" height="199" fill="white"/>
</clipPath>
</defs>
</svg>
