<svg width="698" height="178" viewBox="0 0 698 178" fill="none" xmlns="http://www.w3.org/2000/svg">
<g clip-path="url(#clip0_1_10)">
<g filter="url(#filter0_d_1_10)">
<path d="M25.5312 34.9091H62.392L87.7472 96.6989H89.0256L114.381 34.9091H151.241V144H122.264V80.9318H121.412L97.1222 143.148H79.6506L55.3608 80.5057H54.5085V144H25.5312V34.9091Z" fill="url(#paint0_linear_1_10)"/>
</g>
<g filter="url(#filter1_d_1_10)">
<path d="M197.338 69C197.054 65.4489 195.722 62.679 193.343 60.6903C190.999 58.7017 187.43 57.7074 182.636 57.7074C179.582 57.7074 177.079 58.0803 175.126 58.826C173.208 59.5362 171.788 60.5128 170.864 61.7557C169.941 62.9986 169.462 64.419 169.426 66.017C169.355 67.331 169.586 68.5206 170.119 69.5859C170.687 70.6158 171.575 71.5568 172.782 72.4091C173.989 73.2259 175.534 73.9716 177.416 74.6463C179.298 75.321 181.536 75.9247 184.128 76.4574L193.077 78.375C199.114 79.6534 204.281 81.3402 208.577 83.4354C212.874 85.5305 216.39 87.9986 219.124 90.8395C221.859 93.6449 223.865 96.8054 225.143 100.321C226.457 103.837 227.132 107.672 227.168 111.827C227.132 119 225.339 125.072 221.788 130.044C218.237 135.016 213.158 138.798 206.553 141.39C199.984 143.982 192.082 145.278 182.849 145.278C173.368 145.278 165.094 143.876 158.027 141.07C150.996 138.265 145.527 133.95 141.621 128.126C137.75 122.267 135.797 114.774 135.761 105.648H163.886C164.064 108.986 164.898 111.791 166.39 114.064C167.881 116.337 169.977 118.059 172.675 119.231C175.41 120.403 178.659 120.989 182.423 120.989C185.584 120.989 188.229 120.598 190.36 119.817C192.491 119.036 194.107 117.952 195.207 116.567C196.308 115.183 196.876 113.602 196.912 111.827C196.876 110.158 196.326 108.702 195.261 107.459C194.231 106.18 192.526 105.044 190.147 104.05C187.768 103.02 184.554 102.061 180.506 101.173L169.639 98.8295C159.98 96.7344 152.363 93.2365 146.788 88.3359C141.248 83.3999 138.496 76.6705 138.531 68.1477C138.496 61.223 140.342 55.1683 144.071 49.9837C147.835 44.7635 153.038 40.6974 159.678 37.7855C166.354 34.8736 174.007 33.4176 182.636 33.4176C191.443 33.4176 199.06 34.8913 205.488 37.8388C211.915 40.7862 216.869 44.9411 220.349 50.3033C223.865 55.63 225.641 61.8622 225.676 69H197.338Z" fill="url(#paint1_linear_1_10)"/>
</g>
<path d="M246.281 33.0909H263.483L275.315 61.9261H275.912L287.744 33.0909H304.946V84H291.423V54.5682H291.026L279.69 83.6023H271.537L260.202 54.3693H259.804V84H246.281V33.0909ZM325.317 33.0909V84H311.496V33.0909H325.317ZM331.867 84V33.0909H345.688V53.6733H346.384L361.697 33.0909H377.805L360.603 55.7614L378.202 84H361.697L350.262 64.9091L345.688 70.875V84H331.867ZM381.906 84V33.0909H418.597V44.2273H395.727V52.9773H416.707V64.1136H395.727V72.8636H418.497V84H381.906Z" fill="white"/>
<path d="M273.724 110C273.592 108.343 272.97 107.05 271.86 106.122C270.766 105.194 269.101 104.73 266.864 104.73C265.438 104.73 264.27 104.904 263.359 105.252C262.464 105.584 261.801 106.039 261.37 106.619C260.939 107.199 260.715 107.862 260.699 108.608C260.666 109.221 260.773 109.776 261.022 110.273C261.287 110.754 261.701 111.193 262.265 111.591C262.828 111.972 263.549 112.32 264.428 112.635C265.306 112.95 266.35 113.232 267.56 113.48L271.736 114.375C274.553 114.972 276.964 115.759 278.969 116.737C280.975 117.714 282.615 118.866 283.891 120.192C285.167 121.501 286.104 122.976 286.7 124.616C287.313 126.257 287.628 128.047 287.645 129.986C287.628 133.333 286.791 136.167 285.134 138.487C283.477 140.807 281.107 142.572 278.025 143.782C274.959 144.992 271.272 145.597 266.963 145.597C262.538 145.597 258.677 144.942 255.379 143.633C252.098 142.324 249.546 140.31 247.723 137.592C245.917 134.858 245.005 131.361 244.989 127.102H258.114C258.196 128.66 258.586 129.969 259.282 131.03C259.978 132.09 260.956 132.894 262.215 133.441C263.491 133.988 265.008 134.261 266.764 134.261C268.239 134.261 269.474 134.079 270.468 133.714C271.462 133.35 272.216 132.844 272.73 132.198C273.244 131.552 273.509 130.814 273.526 129.986C273.509 129.207 273.252 128.527 272.755 127.947C272.274 127.351 271.479 126.821 270.369 126.357C269.258 125.876 267.759 125.429 265.869 125.014L260.798 123.92C256.291 122.943 252.736 121.31 250.134 119.023C247.549 116.72 246.265 113.58 246.281 109.602C246.265 106.371 247.126 103.545 248.866 101.126C250.623 98.6896 253.051 96.7921 256.15 95.4332C259.265 94.0743 262.837 93.3949 266.864 93.3949C270.973 93.3949 274.528 94.0826 277.528 95.4581C280.527 96.8336 282.839 98.7725 284.463 101.275C286.104 103.761 286.932 106.669 286.949 110H273.724ZM340.431 113.182H326.411C326.311 112.022 326.046 110.969 325.615 110.025C325.201 109.08 324.621 108.268 323.875 107.589C323.146 106.893 322.26 106.362 321.216 105.998C320.172 105.617 318.987 105.426 317.661 105.426C315.341 105.426 313.377 105.99 311.77 107.116C310.179 108.243 308.969 109.859 308.14 111.964C307.328 114.068 306.922 116.596 306.922 119.545C306.922 122.661 307.337 125.271 308.165 127.376C309.01 129.464 310.228 131.038 311.819 132.099C313.41 133.143 315.324 133.665 317.561 133.665C318.837 133.665 319.981 133.507 320.992 133.192C322.003 132.861 322.881 132.389 323.627 131.776C324.373 131.162 324.977 130.425 325.441 129.563C325.922 128.685 326.245 127.699 326.411 126.605L340.431 126.705C340.265 128.859 339.66 131.055 338.616 133.292C337.572 135.513 336.089 137.567 334.167 139.457C332.261 141.329 329.899 142.837 327.082 143.981C324.265 145.124 320.992 145.696 317.263 145.696C312.59 145.696 308.397 144.693 304.685 142.688C300.989 140.683 298.065 137.733 295.91 133.839C293.772 129.944 292.703 125.18 292.703 119.545C292.703 113.878 293.797 109.105 295.985 105.227C298.172 101.333 301.122 98.3913 304.834 96.4027C308.546 94.3975 312.689 93.3949 317.263 93.3949C320.478 93.3949 323.436 93.834 326.137 94.7124C328.839 95.5907 331.208 96.875 333.247 98.5653C335.285 100.239 336.926 102.302 338.169 104.755C339.412 107.208 340.166 110.017 340.431 113.182ZM346.701 145V94.0909H360.522V113.977H378.818V94.0909H392.639V145H378.818V125.114H360.522V145H346.701ZM412.426 145H397.511L414.315 94.0909H433.207L450.011 145H435.096L423.96 108.111H423.562L412.426 145ZM409.642 124.915H437.681V135.256H409.642V124.915ZM485.042 94.0909H498.863V126.705C498.863 130.582 497.935 133.938 496.079 136.772C494.239 139.589 491.671 141.768 488.373 143.31C485.075 144.834 481.247 145.597 476.888 145.597C472.497 145.597 468.652 144.834 465.354 143.31C462.057 141.768 459.488 139.589 457.648 136.772C455.826 133.938 454.914 130.582 454.914 126.705V94.0909H468.735V125.511C468.735 127.086 469.083 128.494 469.779 129.737C470.475 130.964 471.436 131.925 472.663 132.621C473.906 133.317 475.314 133.665 476.888 133.665C478.479 133.665 479.888 133.317 481.114 132.621C482.341 131.925 483.302 130.964 483.998 129.737C484.694 128.494 485.042 127.086 485.042 125.511V94.0909ZM505.432 145V94.0909H527.506C531.383 94.0909 534.64 94.6129 537.275 95.657C539.926 96.701 541.923 98.1759 543.265 100.082C544.624 101.987 545.304 104.233 545.304 106.818C545.304 108.691 544.89 110.398 544.061 111.939C543.249 113.48 542.105 114.773 540.631 115.817C539.156 116.844 537.432 117.557 535.46 117.955V118.452C537.648 118.535 539.636 119.09 541.426 120.117C543.216 121.128 544.641 122.528 545.702 124.318C546.762 126.091 547.292 128.179 547.292 130.582C547.292 133.366 546.563 135.844 545.105 138.015C543.663 140.186 541.608 141.893 538.94 143.136C536.272 144.379 533.09 145 529.395 145H505.432ZM519.253 133.963H525.716C528.036 133.963 529.776 133.532 530.936 132.67C532.096 131.792 532.676 130.5 532.676 128.793C532.676 127.599 532.403 126.589 531.856 125.76C531.309 124.931 530.53 124.302 529.519 123.871C528.525 123.44 527.323 123.224 525.915 123.224H519.253V133.963ZM519.253 114.673H524.92C526.13 114.673 527.199 114.483 528.127 114.102C529.055 113.72 529.776 113.174 530.29 112.461C530.82 111.732 531.085 110.845 531.085 109.801C531.085 108.227 530.522 107.025 529.395 106.197C528.268 105.352 526.843 104.929 525.119 104.929H519.253V114.673ZM552.189 145V94.0909H588.88V105.227H566.01V113.977H586.991V125.114H566.01V133.864H588.78V145H552.189ZM595.734 145V94.0909H617.709C621.487 94.0909 624.793 94.7786 627.627 96.1541C630.461 97.5296 632.665 99.5099 634.239 102.095C635.814 104.68 636.601 107.779 636.601 111.392C636.601 115.038 635.789 118.112 634.165 120.614C632.557 123.117 630.295 125.006 627.379 126.282C624.478 127.558 621.089 128.196 617.212 128.196H604.087V117.457H614.428C616.052 117.457 617.435 117.259 618.579 116.861C619.739 116.446 620.625 115.792 621.239 114.897C621.868 114.002 622.183 112.834 622.183 111.392C622.183 109.934 621.868 108.749 621.239 107.837C620.625 106.909 619.739 106.23 618.579 105.799C617.435 105.352 616.052 105.128 614.428 105.128H609.555V145H595.734ZM625.564 121.634L638.291 145H623.277L610.848 121.634H625.564Z" fill="white"/>
</g>
<defs>
<filter id="filter0_d_1_10" x="7.53125" y="26.9091" width="161.71" height="145.091" filterUnits="userSpaceOnUse" color-interpolation-filters="sRGB">
<feFlood flood-opacity="0" result="BackgroundImageFix"/>
<feColorMatrix in="SourceAlpha" type="matrix" values="0 0 0 0 0 0 0 0 0 0 0 0 0 0 0 0 0 0 127 0" result="hardAlpha"/>
<feMorphology radius="6" operator="erode" in="SourceAlpha" result="effect1_dropShadow_1_10"/>
<feOffset dy="10"/>
<feGaussianBlur stdDeviation="12"/>
<feColorMatrix type="matrix" values="0 0 0 0 0.101961 0 0 0 0 0.701961 0 0 0 0 0.580392 0 0 0 0.2 0"/>
<feBlend mode="normal" in2="BackgroundImageFix" result="effect1_dropShadow_1_10"/>
<feBlend mode="normal" in="SourceGraphic" in2="effect1_dropShadow_1_10" result="shape"/>
</filter>
<filter id="filter1_d_1_10" x="117.761" y="25.4176" width="127.406" height="147.861" filterUnits="userSpaceOnUse" color-interpolation-filters="sRGB">
<feFlood flood-opacity="0" result="BackgroundImageFix"/>
<feColorMatrix in="SourceAlpha" type="matrix" values="0 0 0 0 0 0 0 0 0 0 0 0 0 0 0 0 0 0 127 0" result="hardAlpha"/>
<feMorphology radius="6" operator="erode" in="SourceAlpha" result="effect1_dropShadow_1_10"/>
<feOffset dy="10"/>
<feGaussianBlur stdDeviation="12"/>
<feColorMatrix type="matrix" values="0 0 0 0 0.101961 0 0 0 0 0.701961 0 0 0 0 0.580392 0 0 0 0.2 0"/>
<feBlend mode="normal" in2="BackgroundImageFix" result="effect1_dropShadow_1_10"/>
<feBlend mode="normal" in="SourceGraphic" in2="effect1_dropShadow_1_10" result="shape"/>
</filter>
<linearGradient id="paint0_linear_1_10" x1="18.5" y1="14" x2="158.5" y2="14" gradientUnits="userSpaceOnUse">
<stop stop-color="#1AB394"/>
<stop offset="1" stop-color="#0F766E"/>
</linearGradient>
<linearGradient id="paint1_linear_1_10" x1="131.5" y1="14" x2="231.5" y2="14" gradientUnits="userSpaceOnUse">
<stop stop-color="#1AB394"/>
<stop offset="1" stop-color="#0F766E"/>
</linearGradient>
<clipPath id="clip0_1_10">
<rect width="698" height="178" fill="white"/>
</clipPath>
</defs>
</svg>
